<svg xmlns="http://www.w3.org/2000/svg" width="1600" height="240" viewBox="0 0 1600 240">
            <defs>
              <radialGradient id="soft" cx="50%" cy="50%" r="50%">
                <stop offset="0%" stop-color="#ffe5b3" stop-opacity="0.82"/>
                <stop offset="100%" stop-color="#fff4de" stop-opacity="0"/>
              </radialGradient>
            </defs>
            <circle cx="1278" cy="74" r="78" fill="url(#soft)"/>
            <circle cx="118" cy="62" r="52" fill="url(#soft)"/>
            <g fill="none" stroke="#4a5568" stroke-opacity="0.96" stroke-width="5.2" stroke-linecap="round">
              <path d="M52 102V240"/>
              <path d="M112 88V240"/>
              <path d="M0 194H278"/>
              <path d="M0 210H278"/>
              <path d="M1240 118V240"/>
              <path d="M1328 94V240"/>
              <path d="M1408 106V240"/>
              <path d="M1204 198H1600"/>
              <path d="M1204 214H1600"/>
            </g>
            <g fill="none" stroke="#ba8a63" stroke-opacity="0.56" stroke-width="2.6">
              <path d="M32 84C82 68 122 72 166 96C202 116 232 150 264 188"/>
              <path d="M1180 90C1244 70 1318 74 1394 108C1458 136 1510 168 1562 214"/>
            </g>
            <g fill="#efc4a1" fill-opacity="0.56">
              <circle cx="176" cy="134" r="4"/>
              <circle cx="212" cy="154" r="3"/>
              <circle cx="248" cy="170" r="4"/>
              <circle cx="1324" cy="146" r="4"/>
              <circle cx="1372" cy="164" r="3"/>
            </g>
            </svg>